<svg width="32" height="33" viewBox="0 0 32 33" fill="none" xmlns="http://www.w3.org/2000/svg">
<path d="M24 11.549C24 9.42728 23.1571 7.39245 21.6569 5.89216C20.1566 4.39187 18.1217 3.54901 16 3.54901C13.8783 3.54901 11.8434 4.39187 10.3431 5.89216C8.84286 7.39245 8 9.42728 8 11.549C8 20.8823 4 23.549 4 23.549H28C28 23.549 24 20.8823 24 11.549Z" stroke="black" stroke-width="2" stroke-linecap="round" stroke-linejoin="round"/>
<path d="M18.3067 28.8823C18.0723 29.2864 17.7358 29.6219 17.331 29.855C16.9262 30.0882 16.4672 30.2109 16 30.2109C15.5329 30.2109 15.0739 30.0882 14.6691 29.855C14.2642 29.6219 13.9278 29.2864 13.6934 28.8823" stroke="black" stroke-width="2" stroke-linecap="round" stroke-linejoin="round"/>
<path d="M2.6665 11.549C2.6665 8.61568 3.59984 5.81568 5.33317 3.54901" stroke="black" stroke-width="2" stroke-linecap="round" stroke-linejoin="round"/>
<path d="M29.3332 11.549C29.3332 8.66408 28.3975 5.85696 26.6665 3.54901" stroke="black" stroke-width="2" stroke-linecap="round" stroke-linejoin="round"/>
</svg>
