<svg width="42" height="43" viewBox="0 0 42 43" fill="none" xmlns="http://www.w3.org/2000/svg">
<path fill-rule="evenodd" clip-rule="evenodd" d="M20.0842 8.16211C20.5925 7.66211 21.4078 7.66211 21.9161 8.16211L32.68 18.926C32.8675 19.1135 32.9729 19.3679 32.9729 19.6331V34.8892C32.9729 35.4902 32.4857 35.9776 31.8845 35.9776H10.1158C9.51466 35.9776 9.02734 35.4902 9.02734 34.8892L9.02765 19.6332C9.02765 19.368 9.13301 19.1136 9.32053 18.9261L20.0842 8.16211ZM30.796 20.5617L21.0001 10.9254L11.2042 20.5617V33.8008H16.3742V26.1817C16.3742 25.5806 16.8615 25.0933 17.4626 25.0933H24.5374C25.1386 25.0933 25.6258 25.5806 25.6258 26.1817V33.8008H30.796V20.5617ZM23.449 33.8008H18.551V27.2701H23.449V33.8008Z" fill="black"/>
</svg>
