<svg width="42" height="43" viewBox="0 0 42 43" fill="none" xmlns="http://www.w3.org/2000/svg">
<path fill-rule="evenodd" clip-rule="evenodd" d="M22.5168 11.9903C23.7217 11.5481 24.5814 10.3906 24.5814 9.03232C24.5814 7.29263 23.1711 5.88232 21.4314 5.88232C19.6917 5.88232 18.2814 7.29263 18.2814 9.03232C18.2814 10.3902 19.1406 11.5473 20.3449 11.9899V19.6902L14.8999 14.2451C15.4385 13.0806 15.2278 11.6548 14.2676 10.6947C13.0375 9.46453 11.043 9.46453 9.81286 10.6947C8.5827 11.9248 8.5827 13.9193 9.81286 15.1495C10.7733 16.1099 12.1997 16.3205 13.3644 15.7812L18.8103 21.227H11.1076C10.665 20.0227 9.50784 19.1636 8.15 19.1636C6.4103 19.1636 5 20.5739 5 22.3136C5 24.0533 6.4103 25.4636 8.15 25.4636C9.50828 25.4636 10.6658 24.6039 11.108 23.3989H18.809L13.363 28.845C12.1984 28.3063 10.7727 28.5171 9.81255 29.4772C8.5824 30.7073 8.5824 32.7018 9.81255 33.932C11.0427 35.1621 13.0372 35.1621 14.2673 33.932C15.2278 32.9715 15.4383 31.5451 14.899 30.3804L20.3449 24.9345V32.6372C19.1406 33.0798 18.2814 34.237 18.2814 35.5948C18.2814 37.3345 19.6917 38.7448 21.4314 38.7448C23.1711 38.7448 24.5814 37.3345 24.5814 35.5948C24.5814 34.2365 23.7217 33.0791 22.5168 32.6368V24.9335L27.9637 30.3804C27.4244 31.5452 27.6349 32.9715 28.5954 33.932C29.8255 35.1621 31.82 35.1621 33.0502 33.932C34.2803 32.7018 34.2803 30.7074 33.0502 29.4772C32.09 28.5171 30.6643 28.3063 29.4997 28.845L24.0537 23.3989H31.7545C32.1967 24.6039 33.3542 25.4636 34.7125 25.4636C36.4522 25.4636 37.8625 24.0533 37.8625 22.3136C37.8625 20.5739 36.4522 19.1636 34.7125 19.1636C33.3547 19.1636 32.1975 20.0227 31.7549 21.2271H24.0524L29.4983 15.7812C30.663 16.3205 32.0894 16.1099 33.0498 15.1494C34.28 13.9193 34.28 11.9248 33.0498 10.6947C31.8197 9.46452 29.8252 9.46452 28.5951 10.6947C27.6349 11.6548 27.4242 13.0806 27.9628 14.2451L22.5168 19.6911V11.9903ZM23.1439 9.03232C23.1439 9.97811 22.3772 10.7448 21.4314 10.7448C20.4857 10.7448 19.7189 9.97811 19.7189 9.03232C19.7189 8.08654 20.4857 7.31982 21.4314 7.31982C22.3772 7.31982 23.1439 8.08654 23.1439 9.03232ZM21.4314 37.3073C22.3772 37.3073 23.1439 36.5406 23.1439 35.5948C23.1439 34.649 22.3772 33.8823 21.4314 33.8823C20.4857 33.8823 19.7189 34.649 19.7189 35.5948C19.7189 36.5406 20.4857 37.3073 21.4314 37.3073ZM32.0334 14.133C31.3646 14.8018 30.2803 14.8018 29.6115 14.133C28.9428 13.4642 28.9428 12.3799 29.6115 11.7111C30.2803 11.0424 31.3646 11.0424 32.0334 11.7111C32.7022 12.3799 32.7022 13.4642 32.0334 14.133ZM10.829 32.9155C11.4978 33.5843 12.5821 33.5843 13.2509 32.9155C13.9196 32.2467 13.9196 31.1624 13.2509 30.4937C12.5821 29.8249 11.4978 29.8249 10.829 30.4937C10.1602 31.1624 10.1602 32.2467 10.829 32.9155ZM33 22.3136C33 23.2594 33.7667 24.0261 34.7125 24.0261C35.6583 24.0261 36.425 23.2594 36.425 22.3136C36.425 21.3678 35.6583 20.6011 34.7125 20.6011C33.7667 20.6011 33 21.3678 33 22.3136ZM8.15 24.0261C7.20421 24.0261 6.4375 23.2594 6.4375 22.3136C6.4375 21.3678 7.20421 20.6011 8.15 20.6011C9.09579 20.6011 9.8625 21.3678 9.8625 22.3136C9.8625 23.2594 9.09579 24.0261 8.15 24.0261ZM29.6118 32.9155C28.9431 32.2467 28.9431 31.1624 29.6118 30.4937C30.2806 29.8249 31.3649 29.8249 32.0337 30.4937C32.7025 31.1624 32.7025 32.2467 32.0337 32.9155C31.3649 33.5843 30.2806 33.5843 29.6118 32.9155ZM10.8293 11.7111C10.1605 12.3799 10.1605 13.4642 10.8293 14.133C11.4981 14.8018 12.5824 14.8018 13.2512 14.133C13.9199 13.4642 13.9199 12.3799 13.2512 11.7111C12.5824 11.0424 11.4981 11.0424 10.8293 11.7111Z" fill="#16161E"/>
</svg>
