<svg width="42" height="43" viewBox="0 0 42 43" fill="none" xmlns="http://www.w3.org/2000/svg">
<path fill-rule="evenodd" clip-rule="evenodd" d="M11.5224 7.98337C11.9687 7.50273 11.9687 6.72346 11.5224 6.24282C11.0761 5.76216 10.3525 5.76216 9.90617 6.24282L5.33474 11.1659C4.88842 11.6465 4.88842 12.4258 5.33474 12.9064L9.90617 17.8295C10.3525 18.3102 11.0761 18.3102 11.5224 17.8295C11.9687 17.3489 11.9687 16.5696 11.5224 16.089L8.90197 13.2669H25.5714C29.9897 13.2669 33.5714 17.1242 33.5714 21.8823C33.5714 22.5621 34.0832 23.1131 34.7143 23.1131C35.3454 23.1131 35.8571 22.5621 35.8571 21.8823C35.8571 15.7647 31.2521 10.8054 25.5714 10.8054H8.90197L11.5224 7.98337ZM8.42857 21.8823C8.42857 21.2026 7.91689 20.6516 7.28571 20.6516C6.65454 20.6516 6.14286 21.2026 6.14286 21.8823C6.14286 27.9999 10.7479 32.9592 16.4286 32.9592H33.0981L30.4775 35.7812C30.0313 36.2619 30.0313 37.0412 30.4775 37.522C30.9239 38.0024 31.6475 38.0024 32.0939 37.522L36.6654 32.5989C37.1115 32.1181 37.1115 31.3388 36.6654 30.8581L32.0939 25.9351C31.6475 25.4545 30.9239 25.4545 30.4775 25.9351C30.0313 26.4158 30.0313 27.195 30.4775 27.6757L33.0981 30.4977H16.4286C12.0103 30.4977 8.42857 26.6405 8.42857 21.8823Z" fill="black"/>
</svg>
